<svg width="144" height="24" viewBox="0 0 144 24" fill="none" xmlns="http://www.w3.org/2000/svg">
<path d="M15.896 7.64C15.4907 6.89333 14.904 6.328 14.136 5.944C13.3893 5.53867 12.504 5.336 11.48 5.336C9.70933 5.336 8.29067 5.92267 7.224 7.096C6.15733 8.248 5.624 9.79467 5.624 11.736C5.624 13.8053 6.17867 15.4267 7.288 16.6C8.41867 17.752 9.96533 18.328 11.928 18.328C13.272 18.328 14.4027 17.9867 15.32 17.304C16.2587 16.6213 16.9413 15.64 17.368 14.36H10.424V10.328H22.328V15.416C21.9227 16.7813 21.2293 18.0507 20.248 19.224C19.288 20.3973 18.0613 21.3467 16.568 22.072C15.0747 22.7973 13.3893 23.16 11.512 23.16C9.29333 23.16 7.30933 22.68 5.56 21.72C3.832 20.7387 2.47733 19.384 1.496 17.656C0.536 15.928 0.056 13.9547 0.056 11.736C0.056 9.51733 0.536 7.544 1.496 5.816C2.47733 4.06667 3.832 2.712 5.56 1.752C7.288 0.770665 9.26133 0.279999 11.48 0.279999C14.168 0.279999 16.4293 0.930665 18.264 2.232C20.12 3.53333 21.3467 5.336 21.944 7.64H15.896ZM36.815 23L32.143 14.52H30.831V23H25.359V0.535999H34.543C36.3137 0.535999 37.8177 0.845332 39.055 1.464C40.3137 2.08267 41.2523 2.936 41.871 4.024C42.4897 5.09067 42.799 6.28533 42.799 7.608C42.799 9.10133 42.3723 10.4347 41.519 11.608C40.687 12.7813 39.4497 13.6133 37.807 14.104L42.991 23H36.815ZM30.831 10.648H34.223C35.2257 10.648 35.9723 10.4027 36.463 9.912C36.975 9.42133 37.231 8.728 37.231 7.832C37.231 6.97867 36.975 6.30667 36.463 5.816C35.9723 5.32533 35.2257 5.08 34.223 5.08H30.831V10.648ZM56.858 23.224C54.746 23.224 52.8047 22.7333 51.034 21.752C49.2847 20.7707 47.8873 19.4053 46.842 17.656C45.818 15.8853 45.306 13.9013 45.306 11.704C45.306 9.50667 45.818 7.53333 46.842 5.784C47.8873 4.03467 49.2847 2.66933 51.034 1.688C52.8047 0.706666 54.746 0.216 56.858 0.216C58.97 0.216 60.9007 0.706666 62.65 1.688C64.4207 2.66933 65.8073 4.03467 66.81 5.784C67.834 7.53333 68.346 9.50667 68.346 11.704C68.346 13.9013 67.834 15.8853 66.81 17.656C65.786 19.4053 64.3993 20.7707 62.65 21.752C60.9007 22.7333 58.97 23.224 56.858 23.224ZM56.858 18.232C58.65 18.232 60.0793 17.6347 61.146 16.44C62.234 15.2453 62.778 13.6667 62.778 11.704C62.778 9.72 62.234 8.14133 61.146 6.968C60.0793 5.77333 58.65 5.176 56.858 5.176C55.0447 5.176 53.594 5.76267 52.506 6.936C51.4393 8.10933 50.906 9.69867 50.906 11.704C50.906 13.688 51.4393 15.2773 52.506 16.472C53.594 17.6453 55.0447 18.232 56.858 18.232ZM73.9503 23.256C72.9903 23.256 72.2009 22.9787 71.5823 22.424C70.9849 21.848 70.6863 21.144 70.6863 20.312C70.6863 19.4587 70.9849 18.744 71.5823 18.168C72.2009 17.592 72.9903 17.304 73.9503 17.304C74.8889 17.304 75.6569 17.592 76.2543 18.168C76.8729 18.744 77.1823 19.4587 77.1823 20.312C77.1823 21.144 76.8729 21.848 76.2543 22.424C75.6569 22.9787 74.8889 23.256 73.9503 23.256Z" fill="#020202"/>
<path d="M97.5415 7.768C97.5415 9.06933 97.2428 10.264 96.6455 11.352C96.0482 12.4187 95.1308 13.2827 93.8935 13.944C92.6562 14.6053 91.1202 14.936 89.2855 14.936H85.8935V23H80.4215V0.535999H89.2855C91.0775 0.535999 92.5922 0.845332 93.8295 1.464C95.0668 2.08267 95.9948 2.936 96.6135 4.024C97.2322 5.112 97.5415 6.36 97.5415 7.768ZM88.8695 10.584C89.9148 10.584 90.6935 10.3387 91.2055 9.848C91.7175 9.35733 91.9735 8.664 91.9735 7.768C91.9735 6.872 91.7175 6.17867 91.2055 5.688C90.6935 5.19733 89.9148 4.952 88.8695 4.952H85.8935V10.584H88.8695ZM111.846 23L107.174 14.52H105.862V23H100.39V0.535999H109.574C111.345 0.535999 112.849 0.845332 114.086 1.464C115.345 2.08267 116.284 2.936 116.902 4.024C117.521 5.09067 117.83 6.28533 117.83 7.608C117.83 9.10133 117.404 10.4347 116.55 11.608C115.718 12.7813 114.481 13.6133 112.838 14.104L118.022 23H111.846ZM105.862 10.648H109.254C110.257 10.648 111.004 10.4027 111.494 9.912C112.006 9.42133 112.262 8.728 112.262 7.832C112.262 6.97867 112.006 6.30667 111.494 5.816C111.004 5.32533 110.257 5.08 109.254 5.08H105.862V10.648ZM131.889 23.224C129.777 23.224 127.836 22.7333 126.065 21.752C124.316 20.7707 122.919 19.4053 121.873 17.656C120.849 15.8853 120.337 13.9013 120.337 11.704C120.337 9.50667 120.849 7.53333 121.873 5.784C122.919 4.03467 124.316 2.66933 126.065 1.688C127.836 0.706666 129.777 0.216 131.889 0.216C134.001 0.216 135.932 0.706666 137.681 1.688C139.452 2.66933 140.839 4.03467 141.841 5.784C142.865 7.53333 143.377 9.50667 143.377 11.704C143.377 13.9013 142.865 15.8853 141.841 17.656C140.817 19.4053 139.431 20.7707 137.681 21.752C135.932 22.7333 134.001 23.224 131.889 23.224ZM131.889 18.232C133.681 18.232 135.111 17.6347 136.177 16.44C137.265 15.2453 137.809 13.6667 137.809 11.704C137.809 9.72 137.265 8.14133 136.177 6.968C135.111 5.77333 133.681 5.176 131.889 5.176C130.076 5.176 128.625 5.76267 127.537 6.936C126.471 8.10933 125.937 9.69867 125.937 11.704C125.937 13.688 126.471 15.2773 127.537 16.472C128.625 17.6453 130.076 18.232 131.889 18.232Z" fill="#CE4640"/>
</svg>
